<svg xmlns="http://www.w3.org/2000/svg" xmlns:xlink="http://www.w3.org/1999/xlink" width="1910" zoomAndPan="magnify" viewBox="0 0 1432.5 1357.499964" height="1810" preserveAspectRatio="xMidYMid meet" version="1.0"><defs><clipPath id="3164d1cba5"><path d="M 108.910156 0 L 1296.648438 0 L 1296.648438 1357 L 108.910156 1357 Z M 108.910156 0 " clip-rule="nonzero"/></clipPath><clipPath id="534c73e5f1"><path d="M 341.988281 343.617188 L 1063.03125 343.617188 L 1063.03125 874.359375 L 341.988281 874.359375 Z M 341.988281 343.617188 " clip-rule="nonzero"/></clipPath></defs><g clip-path="url(#3164d1cba5)"><path fill="#1d3557" d="M 999.386719 104.59375 C 854.269531 101.765625 741.1875 26.382812 702.554688 -0.00390625 C 663.917969 26.382812 550.839844 101.765625 405.71875 104.59375 C 246.46875 108.363281 146.582031 69.730469 108.886719 44.285156 L 108.886719 562.566406 C 108.886719 890.496094 363.316406 1260.828125 702.554688 1356.945312 C 872.171875 1308.886719 1021.058594 1192.039062 1126.601562 1046.921875 C 1232.140625 901.804688 1296.21875 726.53125 1296.21875 562.566406 L 1296.21875 44.285156 C 1258.527344 69.730469 1158.640625 108.363281 999.386719 104.59375 Z M 1232.140625 562.566406 C 1232.140625 708.625 1174.660156 871.648438 1074.773438 1009.226562 C 974.886719 1146.808594 842.960938 1245.753906 702.554688 1290.984375 C 561.203125 1246.695312 430.222656 1146.808594 330.335938 1010.171875 C 230.449219 873.535156 172.964844 708.625 172.964844 562.566406 L 172.964844 140.402344 C 241.753906 160.191406 313.371094 169.613281 384.988281 168.671875 L 407.605469 168.671875 C 506.550781 165.847656 607.378906 133.804688 702.554688 75.382812 C 797.726562 133.804688 898.558594 165.847656 997.503906 167.730469 L 1020.117188 167.730469 C 1091.734375 168.671875 1163.351562 159.25 1232.140625 139.460938 Z M 1169.003906 220.5 L 1169.003906 562.566406 C 1169.003906 696.375 1116.234375 845.265625 1023.886719 971.535156 C 936.25 1091.210938 823.171875 1179.789062 702.554688 1223.136719 C 581.9375 1179.789062 468.855469 1091.210938 381.21875 971.535156 C 288.871094 845.265625 236.101562 695.433594 236.101562 562.566406 L 236.101562 220.5 C 285.101562 228.980469 335.046875 232.75 384.988281 232.75 L 408.546875 232.75 C 512.203125 228.980469 612.089844 200.710938 702.554688 149.828125 C 792.074219 200.710938 892.902344 228.980469 996.558594 232.75 L 1020.117188 232.75 C 1070.0625 232.75 1120.003906 228.039062 1169.003906 220.5 Z M 1169.003906 220.5 " fill-opacity="1" fill-rule="nonzero"/></g><g clip-path="url(#534c73e5f1)"><path fill="#ffffff" d="M 1026.347656 629.589844 C 1013.089844 650.148438 959.1875 671.207031 950.820312 674.382812 C 950.285156 674.589844 949.753906 674.824219 949.230469 675.070312 C 947.671875 675.804688 942.554688 677.207031 935.054688 669.214844 C 928.464844 662.207031 917.117188 644.4375 911.34375 635.144531 C 909.464844 632.117188 910.8125 628.125 914.144531 626.859375 L 1014.757812 588.59375 C 1016.890625 587.785156 1019.300781 588.371094 1020.816406 590.078125 C 1026.339844 596.292969 1037.535156 612.230469 1026.347656 629.589844 Z M 999.914062 780.613281 C 992.949219 782.597656 982.980469 783.972656 969.042969 783.136719 C 964.097656 782.835938 959.371094 780.972656 955.5625 777.804688 L 924.035156 751.628906 C 919.328125 747.71875 920.160156 740.246094 925.628906 737.488281 C 937.503906 731.511719 958.316406 723.796875 984.085938 725.8125 C 995.03125 726.667969 1004.539062 733.640625 1008.554688 743.855469 C 1010.265625 748.230469 1011.871094 753.507812 1012.96875 759.703125 C 1014.605469 768.988281 1008.980469 778.027344 999.914062 780.613281 Z M 905.835938 784.972656 L 499.292969 784.972656 C 495.246094 784.972656 493.128906 782.433594 495.875 780.871094 L 514.199219 770.410156 C 534.980469 759.703125 559.078125 758.75 568.621094 758.855469 C 579.292969 758.960938 589.964844 758.988281 600.636719 758.988281 L 804.488281 758.988281 C 815.160156 758.988281 825.832031 758.960938 836.503906 758.855469 C 846.046875 758.75 870.144531 759.703125 890.925781 770.410156 L 909.25 780.871094 C 911.996094 782.433594 909.882812 784.972656 905.835938 784.972656 Z M 493.78125 635.144531 C 488.007812 644.4375 476.660156 662.207031 470.070312 669.214844 C 462.5625 677.207031 457.453125 675.804688 455.898438 675.070312 C 455.371094 674.824219 454.84375 674.589844 454.304688 674.382812 C 445.9375 671.207031 392.035156 650.148438 378.777344 629.589844 C 367.589844 612.230469 378.785156 596.292969 384.308594 590.078125 C 385.820312 588.371094 388.234375 587.785156 390.371094 588.59375 L 490.988281 626.859375 C 494.3125 628.125 495.660156 632.117188 493.78125 635.144531 Z M 481.089844 751.628906 L 449.5625 777.804688 C 445.753906 780.972656 441.027344 782.835938 436.082031 783.136719 C 422.148438 783.972656 412.183594 782.597656 405.210938 780.613281 C 396.144531 778.027344 390.519531 768.988281 392.15625 759.703125 C 393.253906 753.507812 394.859375 748.230469 396.574219 743.855469 C 400.59375 733.640625 410.09375 726.667969 421.039062 725.8125 C 446.808594 723.796875 467.621094 731.511719 479.5 737.488281 C 484.96875 740.246094 485.796875 747.71875 481.089844 751.628906 Z M 887.074219 693.789062 C 879.042969 700.925781 865.976562 708.617188 845.328125 712.085938 C 845.328125 712.085938 792.273438 721.507812 702.558594 721.507812 C 612.851562 721.507812 559.800781 712.085938 559.800781 712.085938 C 539.148438 708.617188 526.082031 700.925781 518.050781 693.789062 C 510.1875 686.804688 508.488281 675.171875 513.996094 666.214844 L 518.375 659.105469 C 526.578125 645.777344 540.148438 636.628906 555.601562 634.125 C 588.746094 628.765625 641.066406 628.363281 673.515625 628.738281 C 692.65625 628.957031 711.804688 628.976562 730.949219 628.746094 C 763.347656 628.355469 816.148438 628.722656 849.523438 634.125 C 864.976562 636.628906 878.546875 645.777344 886.75 659.105469 L 891.128906 666.214844 C 896.636719 675.171875 894.9375 686.804688 887.074219 693.789062 Z M 461.425781 478.09375 C 464.882812 467.28125 476.214844 439.351562 511.40625 390.082031 C 518.664062 379.914062 530.097656 373.53125 542.5625 372.703125 C 574.796875 370.546875 641.78125 366.628906 702.558594 366.628906 C 763.347656 366.628906 830.328125 370.546875 862.5625 372.703125 C 875.03125 373.53125 886.457031 379.914062 893.71875 390.082031 C 928.90625 439.351562 940.242188 467.28125 943.699219 478.09375 C 944.527344 480.679688 942.570312 483.316406 939.847656 483.277344 L 702.558594 479.632812 L 465.277344 483.277344 C 462.554688 483.316406 460.597656 480.679688 461.425781 478.09375 Z M 1063.128906 792.332031 L 1060.199219 621.195312 C 1058.335938 570.902344 988.589844 506.53125 988.589844 506.53125 C 995.691406 502.6875 1003.566406 500.457031 1011.640625 500.097656 C 1023.054688 499.601562 1039.261719 495.628906 1035.367188 476.523438 C 1031.058594 455.457031 998.828125 450.425781 981.707031 449.242188 C 976.332031 448.875 972.097656 453.746094 973.183594 459.023438 L 979.164062 488.078125 C 979.171875 488.09375 979.171875 488.113281 979.175781 488.132812 C 979.605469 490.308594 976.625 491.410156 975.488281 489.507812 L 970.171875 480.550781 C 928.007812 408.253906 909.621094 382.625 894.164062 369.371094 C 887.15625 363.355469 878.757812 359.179688 869.746094 357.179688 C 802.945312 342.347656 702.558594 343.652344 702.558594 343.652344 C 702.558594 343.652344 602.179688 342.347656 535.382812 357.179688 C 526.367188 359.179688 517.96875 363.355469 510.964844 369.371094 C 495.503906 382.625 477.117188 408.253906 434.960938 480.550781 L 429.636719 489.507812 C 428.492188 491.410156 425.519531 490.308594 425.949219 488.132812 C 425.949219 488.113281 425.957031 488.09375 425.960938 488.078125 L 431.941406 459.023438 C 433.027344 453.746094 428.785156 448.875 423.417969 449.242188 C 406.296875 450.425781 374.066406 455.457031 369.765625 476.523438 C 365.863281 495.628906 382.070312 499.601562 393.492188 500.097656 C 401.558594 500.457031 409.433594 502.6875 416.535156 506.53125 C 416.535156 506.53125 346.789062 570.902344 344.925781 621.195312 L 341.996094 792.332031 C 341.875 799.433594 344.683594 806.226562 349.6875 811.105469 L 349.6875 831.054688 C 349.6875 854.875 369.175781 874.367188 392.996094 874.367188 L 472.445312 874.367188 C 488.59375 874.367188 501.808594 861.152344 501.808594 844.996094 L 501.808594 832.605469 L 903.316406 832.605469 L 903.316406 844.996094 C 903.316406 861.152344 916.535156 874.367188 932.679688 874.367188 L 1012.132812 874.367188 C 1035.949219 874.367188 1055.4375 854.875 1055.4375 831.054688 L 1055.4375 811.105469 C 1060.441406 806.226562 1063.253906 799.433594 1063.128906 792.332031 " fill-opacity="1" fill-rule="nonzero"/></g></svg>